<svg xmlns="http://www.w3.org/2000/svg" xmlns:xlink="http://www.w3.org/1999/xlink" width="2000" zoomAndPan="magnify" viewBox="0 0 1500 1499.999933" height="2000" preserveAspectRatio="xMidYMid meet" version="1.0"><defs><clipPath id="a09e07c98c"><path d="M 32 703 L 609 703 L 609 1217.589844 L 32 1217.589844 Z M 32 703 " clip-rule="nonzero"/></clipPath><clipPath id="c00aaec8be"><path d="M 304 282.339844 L 1468 282.339844 L 1468 1217.589844 L 304 1217.589844 Z M 304 282.339844 " clip-rule="nonzero"/></clipPath></defs><rect x="-150" width="1800" fill="#ffffff" y="-149.999993" height="1799.99992" fill-opacity="1"/><rect x="-150" width="1800" fill="#ffffff" y="-149.999993" height="1799.99992" fill-opacity="1"/><path fill="#ff914d" d="M 1325.632812 826.421875 C 1325.632812 849.722656 1306.753906 868.597656 1283.445312 868.597656 L 1106.640625 868.597656 C 1083.339844 868.597656 1064.464844 849.722656 1064.464844 826.421875 C 1064.464844 803.164062 1083.339844 784.285156 1106.640625 784.285156 L 1283.445312 784.285156 C 1306.753906 784.285156 1325.632812 803.164062 1325.632812 826.421875 " fill-opacity="1" fill-rule="nonzero"/><path fill="#ff914d" d="M 957.167969 932.859375 L 1037.996094 932.859375 C 1061.285156 932.859375 1080.164062 951.738281 1080.164062 975.027344 C 1080.164062 998.3125 1061.285156 1017.191406 1037.996094 1017.191406 L 957.167969 1017.191406 C 933.890625 1017.191406 915.003906 998.3125 915.003906 975.027344 C 915.003906 951.738281 933.890625 932.859375 957.167969 932.859375 " fill-opacity="1" fill-rule="nonzero"/><g clip-path="url(#a09e07c98c)"><path fill="#004aad" d="M 608.96875 1218.222656 L 304.398438 1218.222656 L 32.027344 703.988281 L 336.601562 703.988281 L 608.96875 1218.222656 " fill-opacity="1" fill-rule="nonzero"/></g><g clip-path="url(#c00aaec8be)"><path fill="#ff914d" d="M 1467.476562 677.066406 C 1467.925781 700.726562 1448.886719 720.015625 1425.300781 720.015625 L 892.21875 720.015625 C 880.320312 720.015625 869.394531 726.585938 863.828125 737.101562 C 852.480469 758.5 867.996094 784.285156 892.21875 784.285156 L 984.886719 784.285156 C 1008.109375 784.285156 1028.007812 802.425781 1028.445312 825.648438 C 1028.859375 849.320312 1009.8125 868.597656 986.269531 868.597656 L 813.5 868.597656 C 801.605469 868.597656 790.679688 875.179688 785.109375 885.703125 C 773.773438 907.101562 789.289062 932.867188 813.5 932.867188 L 852.199219 932.867188 C 874.535156 932.867188 893.957031 949.707031 895.507812 971.988281 C 896.40625 984.828125 891.5625 996.566406 883.273438 1004.855469 C 875.640625 1012.480469 865.078125 1017.191406 853.472656 1017.191406 L 734.8125 1017.191406 C 722.914062 1017.191406 712 1023.761719 706.429688 1034.277344 L 608.984375 1218.242188 L 304.378906 1218.242188 L 456.710938 930.679688 L 498.316406 852.125 L 579.144531 699.476562 L 800.410156 281.761719 L 1104.976562 281.761719 L 942.503906 588.554688 C 931.179688 609.9375 946.683594 635.691406 970.878906 635.691406 L 1423.917969 635.691406 C 1447.140625 635.691406 1467.027344 653.839844 1467.476562 677.066406 " fill-opacity="1" fill-rule="nonzero"/></g></svg>