<svg xmlns="http://www.w3.org/2000/svg" xmlns:xlink="http://www.w3.org/1999/xlink" width="2000" zoomAndPan="magnify" viewBox="0 0 1500 1499.999933" height="2000" preserveAspectRatio="xMidYMid meet" version="1.0"><defs><g/><clipPath id="b774d30343"><path d="M 138.5 559 L 630 559 L 630 996.109375 L 138.5 996.109375 Z M 138.5 559 " clip-rule="nonzero"/></clipPath><clipPath id="92560fb310"><path d="M 370 200.359375 L 1361 200.359375 L 1361 996.109375 L 370 996.109375 Z M 370 200.359375 " clip-rule="nonzero"/></clipPath></defs><rect x="-150" width="1800" fill="#ffffff" y="-149.999993" height="1799.99992" fill-opacity="1"/><rect x="-150" width="1800" fill="#ffffff" y="-149.999993" height="1799.99992" fill-opacity="1"/><g fill="#004aad" fill-opacity="1"><g transform="translate(236.446397, 1229.816826)"><g><path d="M 39.203125 0 L 58.796875 -111.203125 L 13 -111.203125 L 18.59375 -142.796875 L 148.59375 -142.796875 L 143 -111.203125 L 97.40625 -111.203125 L 77.796875 0 Z M 39.203125 0 "/></g></g></g><g fill="#004aad" fill-opacity="1"><g transform="translate(371.442771, 1229.816826)"><g><path d="M 0.40625 0 L 18.59375 -102.796875 L 52.796875 -102.796875 L 50.203125 -86.796875 L 52.203125 -86.796875 C 55.398438 -92.535156 59.332031 -96.96875 64 -100.09375 C 68.664062 -103.226562 73.800781 -104.796875 79.40625 -104.796875 C 81.53125 -104.796875 83.59375 -104.59375 85.59375 -104.1875 C 87.59375 -103.789062 89.460938 -103.128906 91.203125 -102.203125 L 85.59375 -71.40625 C 82.925781 -72.863281 80.0625 -73.957031 77 -74.6875 C 73.9375 -75.425781 71.070312 -75.796875 68.40625 -75.796875 C 62.40625 -75.796875 57.171875 -73.59375 52.703125 -69.1875 C 48.234375 -64.789062 45.332031 -58.992188 44 -51.796875 L 34.796875 0 Z M 0.40625 0 "/></g></g></g><g fill="#004aad" fill-opacity="1"><g transform="translate(457.240447, 1229.816826)"><g><path d="M 40.59375 2.59375 C 31.394531 2.59375 23.757812 0.394531 17.6875 -4 C 11.625 -8.394531 7.425781 -14.660156 5.09375 -22.796875 C 2.757812 -30.929688 2.53125 -40.53125 4.40625 -51.59375 C 6.40625 -62.53125 10.003906 -72 15.203125 -80 C 20.398438 -88 26.832031 -94.234375 34.5 -98.703125 C 42.164062 -103.171875 50.53125 -105.40625 59.59375 -105.40625 C 67.726562 -105.40625 74.195312 -103.570312 79 -99.90625 C 83.800781 -96.238281 87.332031 -91.203125 89.59375 -84.796875 L 91.59375 -84.796875 L 94.59375 -102.796875 L 129 -102.796875 L 111 0 L 76.59375 0 L 79.59375 -17.59375 L 77.796875 -17.59375 C 73.265625 -11.0625 67.960938 -6.0625 61.890625 -2.59375 C 55.828125 0.863281 48.726562 2.59375 40.59375 2.59375 Z M 57.59375 -26 C 64.257812 -26 70.257812 -28.429688 75.59375 -33.296875 C 80.925781 -38.160156 84.195312 -44.257812 85.40625 -51.59375 C 86.738281 -58.800781 85.632812 -64.800781 82.09375 -69.59375 C 78.5625 -74.394531 73.460938 -76.796875 66.796875 -76.796875 C 59.867188 -76.796875 53.800781 -74.394531 48.59375 -69.59375 C 43.394531 -64.800781 40.128906 -58.671875 38.796875 -51.203125 C 37.460938 -44.003906 38.5625 -38.003906 42.09375 -33.203125 C 45.632812 -28.398438 50.800781 -26 57.59375 -26 Z M 57.59375 -26 "/></g></g></g><g fill="#004aad" fill-opacity="1"><g transform="translate(586.836971, 1229.816826)"><g><path d="M 0.40625 0 L 26.59375 -148.796875 L 61 -148.796875 L 46.203125 -64.59375 L 48 -64.59375 L 84.203125 -102.796875 L 124.40625 -102.796875 L 75.40625 -53.40625 L 107 0 L 66.59375 0 L 44 -42 L 42 -42 L 34.796875 0 Z M 0.40625 0 "/></g></g></g><g fill="#ff914d" fill-opacity="1"><g transform="translate(703.637767, 1229.816826)"><g><path d="M 2.203125 0 L 27.203125 -142.796875 L 135.203125 -142.796875 L 129.40625 -110 L 60 -110 L 55.203125 -81.796875 L 114.59375 -81.796875 L 109.40625 -53 L 50 -53 L 40.796875 0 Z M 2.203125 0 "/></g></g></g><g fill="#ff914d" fill-opacity="1"><g transform="translate(827.83442, 1229.816826)"><g><path d="M 0.40625 0 L 26.59375 -148.796875 L 61 -148.796875 L 34.796875 0 Z M 0.40625 0 "/></g></g></g><g fill="#ff914d" fill-opacity="1"><g transform="translate(881.232971, 1229.816826)"><g><path d="M 52.59375 2.59375 C 41 2.59375 31.265625 0.425781 23.390625 -3.90625 C 15.523438 -8.238281 9.925781 -14.46875 6.59375 -22.59375 C 3.257812 -30.726562 2.53125 -40.332031 4.40625 -51.40625 C 6.40625 -62.601562 10.503906 -72.234375 16.703125 -80.296875 C 22.898438 -88.367188 30.695312 -94.570312 40.09375 -98.90625 C 49.5 -103.238281 60.066406 -105.40625 71.796875 -105.40625 C 83.398438 -105.40625 93.132812 -103.238281 101 -98.90625 C 108.863281 -94.570312 114.460938 -88.367188 117.796875 -80.296875 C 121.128906 -72.234375 121.796875 -62.601562 119.796875 -51.40625 C 117.796875 -40.195312 113.695312 -30.5625 107.5 -22.5 C 101.300781 -14.4375 93.535156 -8.238281 84.203125 -3.90625 C 74.867188 0.425781 64.332031 2.59375 52.59375 2.59375 Z M 57.59375 -26 C 64.53125 -26 70.566406 -28.363281 75.703125 -33.09375 C 80.835938 -37.832031 84.070312 -43.9375 85.40625 -51.40625 C 86.738281 -58.863281 85.671875 -64.957031 82.203125 -69.6875 C 78.734375 -74.425781 73.53125 -76.796875 66.59375 -76.796875 C 59.664062 -76.796875 53.632812 -74.425781 48.5 -69.6875 C 43.363281 -64.957031 40.128906 -58.863281 38.796875 -51.40625 C 37.460938 -43.9375 38.5625 -37.832031 42.09375 -33.09375 C 45.632812 -28.363281 50.800781 -26 57.59375 -26 Z M 57.59375 -26 "/></g></g></g><g fill="#ff914d" fill-opacity="1"><g transform="translate(1005.429611, 1229.816826)"><g><path d="M 23 0 L 11.59375 -102.796875 L 47.203125 -102.796875 L 52.796875 -35 L 54.59375 -35 L 85.59375 -102.796875 L 116.203125 -102.796875 L 124.40625 -34 L 126 -34 L 156 -102.796875 L 190.203125 -102.796875 L 142.59375 0 L 99.40625 0 L 94.59375 -62.59375 L 92.796875 -62.59375 L 66.203125 0 Z M 23 0 "/></g></g></g><path fill="#ff914d" d="M 1239.925781 663.433594 C 1239.925781 683.265625 1223.859375 699.332031 1204.023438 699.332031 L 1053.539062 699.332031 C 1033.710938 699.332031 1017.644531 683.265625 1017.644531 663.433594 C 1017.644531 643.636719 1033.710938 627.570312 1053.539062 627.570312 L 1204.023438 627.570312 C 1223.859375 627.570312 1239.925781 643.636719 1239.925781 663.433594 " fill-opacity="1" fill-rule="nonzero"/><path fill="#ff914d" d="M 926.324219 754.023438 L 995.117188 754.023438 C 1014.941406 754.023438 1031.007812 770.089844 1031.007812 789.914062 C 1031.007812 809.734375 1014.941406 825.800781 995.117188 825.800781 L 926.324219 825.800781 C 906.511719 825.800781 890.4375 809.734375 890.4375 789.914062 C 890.4375 770.089844 906.511719 754.023438 926.324219 754.023438 " fill-opacity="1" fill-rule="nonzero"/><g clip-path="url(#b774d30343)"><path fill="#004aad" d="M 629.964844 996.898438 L 370.742188 996.898438 L 138.921875 559.230469 L 398.152344 559.230469 L 629.964844 996.898438 " fill-opacity="1" fill-rule="nonzero"/></g><g clip-path="url(#92560fb310)"><path fill="#ff914d" d="M 1360.652344 536.3125 C 1361.035156 556.453125 1344.832031 572.871094 1324.757812 572.871094 L 871.042969 572.871094 C 860.917969 572.871094 851.621094 578.460938 846.878906 587.410156 C 837.222656 605.625 850.425781 627.570312 871.042969 627.570312 L 949.914062 627.570312 C 969.683594 627.570312 986.617188 643.007812 986.988281 662.773438 C 987.339844 682.921875 971.128906 699.332031 951.09375 699.332031 L 804.046875 699.332031 C 793.921875 699.332031 784.625 704.933594 779.882812 713.886719 C 770.234375 732.101562 783.4375 754.03125 804.046875 754.03125 L 836.984375 754.03125 C 855.996094 754.03125 872.523438 768.363281 873.84375 787.328125 C 874.605469 798.257812 870.488281 808.246094 863.433594 815.300781 C 856.933594 821.792969 847.945312 825.800781 838.066406 825.800781 L 737.074219 825.800781 C 726.949219 825.800781 717.660156 831.394531 712.917969 840.339844 L 629.980469 996.914062 L 370.726562 996.914062 L 500.378906 752.171875 L 535.789062 685.308594 L 604.585938 555.386719 L 792.902344 199.867188 L 1052.125 199.867188 L 913.84375 460.980469 C 904.203125 479.179688 917.398438 501.101562 937.992188 501.101562 L 1323.578125 501.101562 C 1343.347656 501.101562 1360.273438 516.546875 1360.652344 536.3125 " fill-opacity="1" fill-rule="nonzero"/></g></svg>